<svg width="20" height="20" viewBox="0 0 20 20" fill="none" xmlns="http://www.w3.org/2000/svg">
<path d="M6.7973 3.2667C6.63611 3.10247 6.3723 3.1 6.20807 3.26119L3.0414 6.36918C2.9538 6.45515 2.91223 6.57033 2.91696 6.68401C2.91294 6.79207 2.95109 6.89977 3.02721 6.98222L6.13518 10.3484C6.29129 10.5175 6.55489 10.528 6.72397 10.3719C6.89304 10.2158 6.90322 9.9518 6.74711 9.78272L4.28516 7.11624H12.5468C14.5594 7.11624 16.25 8.86768 16.25 11.0586C16.25 13.2496 14.5594 15.001 12.5468 15.001L3.33335 15.001C3.10323 15.001 2.91668 15.1875 2.91668 15.4176C2.91668 15.6478 3.10323 15.8343 3.33335 15.8343L12.5468 15.8343C15.063 15.8343 17.0834 13.6652 17.0834 11.0586C17.0834 8.45207 15.063 6.2829 12.5468 6.2829H4.31899L6.79179 3.85593C6.95602 3.69474 6.95849 3.43093 6.7973 3.2667Z" fill="#3B3B3B"/>
</svg>
